{
    "asset" : {
        "generator" : "Khronos glTF Blender I/O v1.0.5",
        "version" : "2.0"
    },
    "scene" : 0,
    "scenes" : [
        {
            "name" : "Scene",
            "nodes" : [
                0,
                1,
                4
            ]
        }
    ],
    "nodes" : [
        {
            "name" : "Light",
            "rotation" : [
                0.16907575726509094,
                0.7558803558349609,
                -0.27217137813568115,
                0.570947527885437
            ],
            "translation" : [
                4.076245307922363,
                5.903861999511719,
                -1.0054539442062378
            ]
        },
        {
            "name" : "Camera",
            "rotation" : [
                0.483536034822464,
                0.33687159419059753,
                -0.20870360732078552,
                0.7804827094078064
            ],
            "translation" : [
                7.358891487121582,
                4.958309173583984,
                6.925790786743164
            ]
        },
        {
            "mesh" : 0,
            "name" : "mesh_0"
        },
        {
            "mesh" : 1,
            "name" : "mesh_1"
        },
        {
            "children" : [
                2,
                3
            ],
            "name" : "Node",
            "rotation" : [
                0.7071068286895752,
                0,
                0,
                0.7071067094802856
            ],
            "scale" : [
                1.2838798761367798,
                1.2838799953460693,
                1.2838799953460693
            ],
            "translation" : [
                0,
                -0.1751720905303955,
                0
            ]
        }
    ],
    "materials" : [
        {
            "name" : "Material_0",
            "pbrMetallicRoughness" : {
                "baseColorFactor" : [
                    0.19230222702026367,
                    0.14292891323566437,
                    0.12211422622203827,
                    1
                ],
                "metallicFactor" : 0,
                "roughnessFactor" : 1
            }
        },
        {
            "alphaCutoff" : 0.8999999761581421,
            "alphaMode" : "MASK",
            "name" : "Material_1",
            "pbrMetallicRoughness" : {
                "baseColorFactor" : [
                    0.5490196943283081,
                    0.2783244252204895,
                    0.054041147232055664,
                    1
                ],
                "baseColorTexture" : {
                    "index" : 0,
                    "texCoord" : 0
                },
                "metallicFactor" : 0,
                "roughnessFactor" : 1
            }
        }
    ],
    "meshes" : [
        {
            "name" : "Mesh_0",
            "primitives" : [
                {
                    "attributes" : {
                        "POSITION" : 0,
                        "NORMAL" : 1,
                        "TEXCOORD_0" : 2
                    },
                    "indices" : 3,
                    "material" : 0
                }
            ]
        },
        {
            "name" : "Mesh_1",
            "primitives" : [
                {
                    "attributes" : {
                        "POSITION" : 4,
                        "NORMAL" : 5,
                        "TEXCOORD_0" : 6
                    },
                    "indices" : 7,
                    "material" : 1
                }
            ]
        }
    ],
    "textures" : [
        {
            "source" : 0
        }
    ],
    "images" : [
        {
            "bufferView" : 8,
            "mimeType" : "image/png",
            "name" : "Image_0"
        }
    ],
    "accessors" : [
        {
            "bufferView" : 0,
            "componentType" : 5126,
            "count" : 7392,
            "max" : [
                1.6342648267745972,
                1.5536490678787231,
                0
            ],
            "min" : [
                -0.43098434805870056,
                -1.039601445198059,
                -7.493016242980957
            ],
            "type" : "VEC3"
        },
        {
            "bufferView" : 1,
            "componentType" : 5126,
            "count" : 7392,
            "type" : "VEC3"
        },
        {
            "bufferView" : 2,
            "componentType" : 5126,
            "count" : 7392,
            "type" : "VEC2"
        },
        {
            "bufferView" : 3,
            "componentType" : 5123,
            "count" : 11196,
            "type" : "SCALAR"
        },
        {
            "bufferView" : 4,
            "componentType" : 5126,
            "count" : 2488,
            "max" : [
                3.011916399002075,
                2.9431066513061523,
                -0.8885031938552856
            ],
            "min" : [
                -1.7716211080551147,
                -2.3443193435668945,
                -8.933038711547852
            ],
            "type" : "VEC3"
        },
        {
            "bufferView" : 5,
            "componentType" : 5126,
            "count" : 2488,
            "type" : "VEC3"
        },
        {
            "bufferView" : 6,
            "componentType" : 5126,
            "count" : 2488,
            "type" : "VEC2"
        },
        {
            "bufferView" : 7,
            "componentType" : 5123,
            "count" : 2496,
            "type" : "SCALAR"
        }
    ],
    "bufferViews" : [
        {
            "buffer" : 0,
            "byteLength" : 88704,
            "byteOffset" : 0
        },
        {
            "buffer" : 0,
            "byteLength" : 88704,
            "byteOffset" : 88704
        },
        {
            "buffer" : 0,
            "byteLength" : 59136,
            "byteOffset" : 177408
        },
        {
            "buffer" : 0,
            "byteLength" : 22392,
            "byteOffset" : 236544
        },
        {
            "buffer" : 0,
            "byteLength" : 29856,
            "byteOffset" : 258936
        },
        {
            "buffer" : 0,
            "byteLength" : 29856,
            "byteOffset" : 288792
        },
        {
            "buffer" : 0,
            "byteLength" : 19904,
            "byteOffset" : 318648
        },
        {
            "buffer" : 0,
            "byteLength" : 4992,
            "byteOffset" : 338552
        },
        {
            "buffer" : 0,
            "byteLength" : 242039,
            "byteOffset" : 343544
        }
    ],
    "buffers" : [
        {
            "byteLength" : 585584,
            "uri" : "data:application/octet-stream;base64,"
        }
    ]
}
