{
    "asset" : {
        "generator" : "Khronos glTF Blender I/O v1.0.5",
        "version" : "2.0"
    },
    "scene" : 0,
    "scenes" : [
        {
            "name" : "Scene",
            "nodes" : [
                0,
                1,
                4
            ]
        }
    ],
    "nodes" : [
        {
            "name" : "Light",
            "rotation" : [
                0.16907575726509094,
                0.7558803558349609,
                -0.27217137813568115,
                0.570947527885437
            ],
            "translation" : [
                4.076245307922363,
                5.903861999511719,
                -1.0054539442062378
            ]
        },
        {
            "name" : "Camera",
            "rotation" : [
                0.483536034822464,
                0.33687159419059753,
                -0.20870360732078552,
                0.7804827094078064
            ],
            "translation" : [
                7.358891487121582,
                4.958309173583984,
                6.925790786743164
            ]
        },
        {
            "mesh" : 0,
            "name" : "Object_0"
        },
        {
            "mesh" : 1,
            "name" : "Object_1"
        },
        {
            "children" : [
                2,
                3
            ],
            "name" : "Node",
            "rotation" : [
                0.7071068286895752,
                0,
                0,
                0.7071067094802856
            ],
            "translation" : [
                0,
                -0.27773308753967285,
                0
            ]
        }
    ],
    "materials" : [
        {
            "name" : "Material_0",
            "pbrMetallicRoughness" : {
                "baseColorFactor" : [
                    0.14874733984470367,
                    0.14013952016830444,
                    0.11609087884426117,
                    1
                ],
                "metallicFactor" : 0,
                "roughnessFactor" : 1
            }
        },
        {
            "alphaCutoff" : 0.8999999761581421,
            "alphaMode" : "MASK",
            "name" : "Material_1",
            "pbrMetallicRoughness" : {
                "baseColorFactor" : [
                    0.9450980424880981,
                    0.4117647111415863,
                    0.3137255012989044,
                    1
                ],
                "baseColorTexture" : {
                    "index" : 0,
                    "texCoord" : 0
                },
                "metallicFactor" : 0,
                "roughnessFactor" : 1
            }
        }
    ],
    "meshes" : [
        {
            "name" : "Mesh_0",
            "primitives" : [
                {
                    "attributes" : {
                        "POSITION" : 0,
                        "NORMAL" : 1,
                        "TEXCOORD_0" : 2
                    },
                    "indices" : 3,
                    "material" : 0
                }
            ]
        },
        {
            "name" : "Mesh_1",
            "primitives" : [
                {
                    "attributes" : {
                        "POSITION" : 4,
                        "NORMAL" : 5,
                        "TEXCOORD_0" : 6
                    },
                    "indices" : 7,
                    "material" : 1
                }
            ]
        }
    ],
    "textures" : [
        {
            "source" : 0
        }
    ],
    "images" : [
        {
            "bufferView" : 8,
            "mimeType" : "image/png",
            "name" : "Image_0"
        }
    ],
    "accessors" : [
        {
            "bufferView" : 0,
            "componentType" : 5126,
            "count" : 3796,
            "max" : [
                1.497258186340332,
                1.6053016185760498,
                0
            ],
            "min" : [
                -1.237613558769226,
                -1.1205804347991943,
                -8.061333656311035
            ],
            "type" : "VEC3"
        },
        {
            "bufferView" : 1,
            "componentType" : 5126,
            "count" : 3796,
            "type" : "VEC3"
        },
        {
            "bufferView" : 2,
            "componentType" : 5126,
            "count" : 3796,
            "type" : "VEC2"
        },
        {
            "bufferView" : 3,
            "componentType" : 5123,
            "count" : 6012,
            "type" : "SCALAR"
        },
        {
            "bufferView" : 4,
            "componentType" : 5126,
            "count" : 1328,
            "max" : [
                3.0384464263916016,
                2.982539415359497,
                -2.4515347480773926
            ],
            "min" : [
                -2.7532663345336914,
                -2.6010220050811768,
                -9.539679527282715
            ],
            "type" : "VEC3"
        },
        {
            "bufferView" : 5,
            "componentType" : 5126,
            "count" : 1328,
            "type" : "VEC3"
        },
        {
            "bufferView" : 6,
            "componentType" : 5126,
            "count" : 1328,
            "type" : "VEC2"
        },
        {
            "bufferView" : 7,
            "componentType" : 5123,
            "count" : 1344,
            "type" : "SCALAR"
        }
    ],
    "bufferViews" : [
        {
            "buffer" : 0,
            "byteLength" : 45552,
            "byteOffset" : 0
        },
        {
            "buffer" : 0,
            "byteLength" : 45552,
            "byteOffset" : 45552
        },
        {
            "buffer" : 0,
            "byteLength" : 30368,
            "byteOffset" : 91104
        },
        {
            "buffer" : 0,
            "byteLength" : 12024,
            "byteOffset" : 121472
        },
        {
            "buffer" : 0,
            "byteLength" : 15936,
            "byteOffset" : 133496
        },
        {
            "buffer" : 0,
            "byteLength" : 15936,
            "byteOffset" : 149432
        },
        {
            "buffer" : 0,
            "byteLength" : 10624,
            "byteOffset" : 165368
        },
        {
            "buffer" : 0,
            "byteLength" : 2688,
            "byteOffset" : 175992
        },
        {
            "buffer" : 0,
            "byteLength" : 242039,
            "byteOffset" : 178680
        }
    ],
    "buffers" : [
        {
            "byteLength" : 420720,
            "uri" : "data:application/octet-stream;base64,"
        }
    ]
}
