{
    "asset" : {
        "generator" : "Khronos glTF Blender I/O v1.0.5",
        "version" : "2.0"
    },
    "scene" : 0,
    "scenes" : [
        {
            "name" : "Scene",
            "nodes" : [
                0,
                1,
                4
            ]
        }
    ],
    "nodes" : [
        {
            "name" : "Light",
            "rotation" : [
                0.16907575726509094,
                0.7558803558349609,
                -0.27217137813568115,
                0.570947527885437
            ],
            "translation" : [
                4.076245307922363,
                5.903861999511719,
                -1.0054539442062378
            ]
        },
        {
            "name" : "Camera",
            "rotation" : [
                0.483536034822464,
                0.33687159419059753,
                -0.20870360732078552,
                0.7804827094078064
            ],
            "translation" : [
                7.358891487121582,
                4.958309173583984,
                6.925790786743164
            ]
        },
        {
            "mesh" : 0,
            "name" : "mesh_0"
        },
        {
            "mesh" : 1,
            "name" : "mesh_1"
        },
        {
            "children" : [
                2,
                3
            ],
            "name" : "Node",
            "rotation" : [
                0.7071068286895752,
                0,
                0,
                0.7071067094802856
            ],
            "translation" : [
                0,
                -0.14930568635463715,
                0
            ]
        }
    ],
    "materials" : [
        {
            "name" : "Material_0",
            "pbrMetallicRoughness" : {
                "baseColorFactor" : [
                    0.47058823704719543,
                    0.29411765933036804,
                    0.2235294133424759,
                    1
                ],
                "metallicFactor" : 0,
                "roughnessFactor" : 1
            }
        },
        {
            "alphaCutoff" : 0.802173912525177,
            "alphaMode" : "MASK",
            "name" : "Material_1",
            "pbrMetallicRoughness" : {
                "baseColorFactor" : [
                    0.7361538410186768,
                    0.642196536064148,
                    0.09538295120000839,
                    1
                ],
                "baseColorTexture" : {
                    "index" : 0,
                    "texCoord" : 0
                },
                "metallicFactor" : 0,
                "roughnessFactor" : 1
            }
        }
    ],
    "meshes" : [
        {
            "name" : "Mesh_0",
            "primitives" : [
                {
                    "attributes" : {
                        "POSITION" : 0,
                        "NORMAL" : 1,
                        "TEXCOORD_0" : 2
                    },
                    "indices" : 3,
                    "material" : 0
                }
            ]
        },
        {
            "name" : "Mesh_1",
            "primitives" : [
                {
                    "attributes" : {
                        "POSITION" : 4,
                        "NORMAL" : 5,
                        "TEXCOORD_0" : 6
                    },
                    "indices" : 7,
                    "material" : 1
                }
            ]
        }
    ],
    "textures" : [
        {
            "source" : 0
        }
    ],
    "images" : [
        {
            "bufferView" : 8,
            "mimeType" : "image/png",
            "name" : "Image_0"
        }
    ],
    "accessors" : [
        {
            "bufferView" : 0,
            "componentType" : 5126,
            "count" : 6727,
            "max" : [
                1.217204213142395,
                1.0778428316116333,
                0
            ],
            "min" : [
                -0.8319815397262573,
                -0.9979819059371948,
                -7.032456874847412
            ],
            "type" : "VEC3"
        },
        {
            "bufferView" : 1,
            "componentType" : 5126,
            "count" : 6727,
            "type" : "VEC3"
        },
        {
            "bufferView" : 2,
            "componentType" : 5126,
            "count" : 6727,
            "type" : "VEC2"
        },
        {
            "bufferView" : 3,
            "componentType" : 5123,
            "count" : 10332,
            "type" : "SCALAR"
        },
        {
            "bufferView" : 4,
            "componentType" : 5126,
            "count" : 2290,
            "max" : [
                2.250908613204956,
                2.0742409229278564,
                -0.9619473218917847
            ],
            "min" : [
                -1.8378729820251465,
                -2.0170319080352783,
                -7.932973861694336
            ],
            "type" : "VEC3"
        },
        {
            "bufferView" : 5,
            "componentType" : 5126,
            "count" : 2290,
            "type" : "VEC3"
        },
        {
            "bufferView" : 6,
            "componentType" : 5126,
            "count" : 2290,
            "type" : "VEC2"
        },
        {
            "bufferView" : 7,
            "componentType" : 5123,
            "count" : 2304,
            "type" : "SCALAR"
        }
    ],
    "bufferViews" : [
        {
            "buffer" : 0,
            "byteLength" : 80724,
            "byteOffset" : 0
        },
        {
            "buffer" : 0,
            "byteLength" : 80724,
            "byteOffset" : 80724
        },
        {
            "buffer" : 0,
            "byteLength" : 53816,
            "byteOffset" : 161448
        },
        {
            "buffer" : 0,
            "byteLength" : 20664,
            "byteOffset" : 215264
        },
        {
            "buffer" : 0,
            "byteLength" : 27480,
            "byteOffset" : 235928
        },
        {
            "buffer" : 0,
            "byteLength" : 27480,
            "byteOffset" : 263408
        },
        {
            "buffer" : 0,
            "byteLength" : 18320,
            "byteOffset" : 290888
        },
        {
            "buffer" : 0,
            "byteLength" : 4608,
            "byteOffset" : 309208
        },
        {
            "buffer" : 0,
            "byteLength" : 242039,
            "byteOffset" : 313816
        }
    ],
    "buffers" : [
        {
            "byteLength" : 555856,
            "uri" : "data:application/octet-stream;base64,"
        }
    ]
}
