{
    "asset" : {
        "generator" : "Khronos glTF Blender I/O v1.0.5",
        "version" : "2.0"
    },
    "scene" : 0,
    "scenes" : [
        {
            "name" : "Scene",
            "nodes" : [
                0,
                1,
                4
            ]
        }
    ],
    "nodes" : [
        {
            "name" : "Light",
            "rotation" : [
                0.16907575726509094,
                0.7558803558349609,
                -0.27217137813568115,
                0.570947527885437
            ],
            "translation" : [
                4.076245307922363,
                5.903861999511719,
                -1.0054539442062378
            ]
        },
        {
            "name" : "Camera",
            "rotation" : [
                0.483536034822464,
                0.33687159419059753,
                -0.20870360732078552,
                0.7804827094078064
            ],
            "translation" : [
                7.358891487121582,
                4.958309173583984,
                6.925790786743164
            ]
        },
        {
            "mesh" : 0,
            "name" : "mesh_0"
        },
        {
            "mesh" : 1,
            "name" : "mesh_1"
        },
        {
            "children" : [
                2,
                3
            ],
            "name" : "Node",
            "rotation" : [
                0.7071068286895752,
                0,
                0,
                0.7071067094802856
            ],
            "translation" : [
                0,
                -0.1404888927936554,
                0
            ]
        }
    ],
    "materials" : [
        {
            "name" : "Material_0",
            "pbrMetallicRoughness" : {
                "baseColorFactor" : [
                    0.05086483433842659,
                    0.031540337949991226,
                    0.019369572401046753,
                    1
                ],
                "metallicFactor" : 0,
                "roughnessFactor" : 1
            }
        },
        {
            "alphaCutoff" : 0.8999999761581421,
            "alphaMode" : "MASK",
            "name" : "Material_1",
            "pbrMetallicRoughness" : {
                "baseColorFactor" : [
                    0.41960784792900085,
                    0.5490196347236633,
                    0.30980393290519714,
                    1
                ],
                "baseColorTexture" : {
                    "index" : 0,
                    "texCoord" : 0
                },
                "metallicFactor" : 0,
                "roughnessFactor" : 1
            }
        }
    ],
    "meshes" : [
        {
            "name" : "Mesh_0",
            "primitives" : [
                {
                    "attributes" : {
                        "POSITION" : 0,
                        "NORMAL" : 1,
                        "TEXCOORD_0" : 2
                    },
                    "indices" : 3,
                    "material" : 0
                }
            ]
        },
        {
            "name" : "Mesh_1",
            "primitives" : [
                {
                    "attributes" : {
                        "POSITION" : 4,
                        "NORMAL" : 5,
                        "TEXCOORD_0" : 6
                    },
                    "indices" : 7,
                    "material" : 1
                }
            ]
        }
    ],
    "textures" : [
        {
            "source" : 0
        }
    ],
    "images" : [
        {
            "bufferView" : 8,
            "mimeType" : "image/png",
            "name" : "Image_0"
        }
    ],
    "accessors" : [
        {
            "bufferView" : 0,
            "componentType" : 5126,
            "count" : 4850,
            "max" : [
                1.7225825786590576,
                2.0069704055786133,
                0
            ],
            "min" : [
                -1.6531494855880737,
                -1.5414984226226807,
                -8.124781608581543
            ],
            "type" : "VEC3"
        },
        {
            "bufferView" : 1,
            "componentType" : 5126,
            "count" : 4850,
            "type" : "VEC3"
        },
        {
            "bufferView" : 2,
            "componentType" : 5126,
            "count" : 4850,
            "type" : "VEC2"
        },
        {
            "bufferView" : 3,
            "componentType" : 5123,
            "count" : 7740,
            "type" : "SCALAR"
        },
        {
            "bufferView" : 4,
            "componentType" : 5126,
            "count" : 1724,
            "max" : [
                3.086212396621704,
                3.2846856117248535,
                -1.4943194389343262
            ],
            "min" : [
                -2.9856157302856445,
                -2.908669948577881,
                -9.439441680908203
            ],
            "type" : "VEC3"
        },
        {
            "bufferView" : 5,
            "componentType" : 5126,
            "count" : 1724,
            "type" : "VEC3"
        },
        {
            "bufferView" : 6,
            "componentType" : 5126,
            "count" : 1724,
            "type" : "VEC2"
        },
        {
            "bufferView" : 7,
            "componentType" : 5123,
            "count" : 1728,
            "type" : "SCALAR"
        }
    ],
    "bufferViews" : [
        {
            "buffer" : 0,
            "byteLength" : 58200,
            "byteOffset" : 0
        },
        {
            "buffer" : 0,
            "byteLength" : 58200,
            "byteOffset" : 58200
        },
        {
            "buffer" : 0,
            "byteLength" : 38800,
            "byteOffset" : 116400
        },
        {
            "buffer" : 0,
            "byteLength" : 15480,
            "byteOffset" : 155200
        },
        {
            "buffer" : 0,
            "byteLength" : 20688,
            "byteOffset" : 170680
        },
        {
            "buffer" : 0,
            "byteLength" : 20688,
            "byteOffset" : 191368
        },
        {
            "buffer" : 0,
            "byteLength" : 13792,
            "byteOffset" : 212056
        },
        {
            "buffer" : 0,
            "byteLength" : 3456,
            "byteOffset" : 225848
        },
        {
            "buffer" : 0,
            "byteLength" : 242039,
            "byteOffset" : 229304
        }
    ],
    "buffers" : [
        {
            "byteLength" : 471344,
            "uri" : "data:application/octet-stream;base64,"
        }
    ]
}
